<svg width="48" height="48" viewBox="0 0 48 48" fill="none" xmlns="http://www.w3.org/2000/svg">
<circle cx="24" cy="24" r="24" fill="#313E8D"/>
<path d="M20 33.3333C13.3333 35.3333 13.3333 30 10.6667 29.3333M29.3333 37.3333V32.1733C29.3833 31.5375 29.2974 30.8984 29.0813 30.2984C28.8652 29.6984 28.5239 29.1512 28.08 28.6933C32.2667 28.2267 36.6667 26.64 36.6667 19.36C36.6663 17.4984 35.9502 15.7083 34.6667 14.36C35.2745 12.7313 35.2315 10.9311 34.5467 9.33333C34.5467 9.33333 32.9733 8.86666 29.3333 11.3067C26.2773 10.4784 23.056 10.4784 20 11.3067C16.36 8.86666 14.7867 9.33333 14.7867 9.33333C14.1018 10.9311 14.0588 12.7313 14.6667 14.36C13.3735 15.7183 12.6567 17.5246 12.6667 19.4C12.6667 26.6267 17.0667 28.2133 21.2533 28.7333C20.8147 29.1866 20.4763 29.7272 20.2604 30.3199C20.0445 30.9126 19.9557 31.5441 20 32.1733V37.3333" stroke="white" stroke-width="2" stroke-linecap="round" stroke-linejoin="round"/>
</svg>
