<svg width="48" height="48" viewBox="0 0 48 48" fill="none" xmlns="http://www.w3.org/2000/svg">
<circle cx="24" cy="24" r="24" fill="#313E8D"/>
<path d="M30.6667 10.6667H17.3333C13.6514 10.6667 10.6667 13.6515 10.6667 17.3334V30.6667C10.6667 34.3486 13.6514 37.3334 17.3333 37.3334H30.6667C34.3486 37.3334 37.3333 34.3486 37.3333 30.6667V17.3334C37.3333 13.6515 34.3486 10.6667 30.6667 10.6667Z" stroke="white" stroke-width="2" stroke-linecap="round" stroke-linejoin="round"/>
<path d="M29.3333 23.16C29.4979 24.2696 29.3083 25.4029 28.7917 26.3987C28.275 27.3944 27.4575 28.2019 26.4555 28.7062C25.4535 29.2106 24.3179 29.3861 23.2104 29.2079C22.1028 29.0297 21.0797 28.5068 20.2864 27.7135C19.4932 26.9203 18.9703 25.8971 18.7921 24.7896C18.6139 23.682 18.7894 22.5465 19.2938 21.5445C19.7981 20.5424 20.6056 19.725 21.6013 19.2083C22.597 18.6916 23.7303 18.5021 24.84 18.6666C25.9719 18.8345 27.0198 19.3619 27.8289 20.1711C28.638 20.9802 29.1655 22.0281 29.3333 23.16Z" stroke="white" stroke-width="2" stroke-linecap="round" stroke-linejoin="round"/>
<path d="M31.3333 16.6667H31.3467" stroke="white" stroke-width="2" stroke-linecap="round" stroke-linejoin="round"/>
</svg>
