<svg width="220" height="232" viewBox="0 0 220 232" fill="none" xmlns="http://www.w3.org/2000/svg">
<g clip-path="url(#clip0_119_443)">
<path d="M215.186 94.4315C216.125 69.5936 206.989 44.4558 186.85 32.4926C176.909 26.5859 165.286 23.1258 153.657 23.6356C141.181 24.1812 129.435 29.1404 117.67 33.2301C105.906 37.3198 93.1658 40.588 81.0393 37.6856C72.2652 35.5868 64.5472 30.3997 55.8653 28.0371C21.6593 18.7363 -8.12583 56.6409 8.61181 86.7739C12.7195 94.1617 19.0498 100.086 24.3732 106.701C29.6966 113.315 34.1604 121.302 33.442 129.68C32.828 136.618 28.8001 142.794 27.1239 149.558C23.9188 162.517 30.2799 176.771 41.2766 184.669C52.2734 192.566 67.1076 194.407 80.37 191.157C93.6324 187.907 105.298 179.955 114.49 170.109C119.402 164.832 124.216 158.667 131.283 156.874C138.068 155.159 145.061 157.954 151.944 159.237C158.307 160.386 164.844 160.256 171.154 158.854C177.464 157.452 183.415 154.807 188.643 151.082C205.251 139.082 214.339 116.877 215.186 94.4315Z" fill="#C1D8ED"/>
<path opacity="0.7" d="M215.186 94.4315C216.125 69.5936 206.989 44.4558 186.85 32.4926C176.909 26.5859 165.286 23.1258 153.657 23.6356C141.181 24.1812 129.435 29.1404 117.67 33.2301C105.906 37.3198 93.1658 40.588 81.0393 37.6856C72.2652 35.5868 64.5472 30.3997 55.8653 28.0371C21.6593 18.7363 -8.12583 56.6409 8.61181 86.7739C12.7195 94.1617 19.0498 100.086 24.3732 106.701C29.6966 113.315 34.1604 121.302 33.442 129.68C32.828 136.618 28.8001 142.794 27.1239 149.558C23.9188 162.517 30.2799 176.771 41.2766 184.669C52.2734 192.566 67.1076 194.407 80.37 191.157C93.6324 187.907 105.298 179.955 114.49 170.109C119.402 164.832 124.216 158.667 131.283 156.874C138.068 155.159 145.061 157.954 151.944 159.237C158.307 160.386 164.844 160.256 171.154 158.854C177.464 157.452 183.415 154.807 188.643 151.082C205.251 139.082 214.339 116.877 215.186 94.4315Z" fill="white"/>
<path d="M105.784 232.012C151.634 232.012 188.803 224.752 188.803 215.797C188.803 206.842 151.634 199.582 105.784 199.582C59.9335 199.582 22.7646 206.842 22.7646 215.797C22.7646 224.752 59.9335 232.012 105.784 232.012Z" fill="#C1D8ED"/>
<path opacity="0.5" d="M105.784 232.012C151.634 232.012 188.803 224.752 188.803 215.797C188.803 206.842 151.634 199.582 105.784 199.582C59.9335 199.582 22.7646 206.842 22.7646 215.797C22.7646 224.752 59.9335 232.012 105.784 232.012Z" fill="white"/>
<path d="M193.917 0.0934448H134.058C132.013 0.0934448 130.355 1.71237 130.355 3.7094V68.155C130.355 70.152 132.013 71.7709 134.058 71.7709H193.917C195.962 71.7709 197.619 70.152 197.619 68.155V3.7094C197.619 1.71237 195.962 0.0934448 193.917 0.0934448Z" fill="white" stroke="#263238" stroke-linecap="round" stroke-linejoin="round"/>
<path d="M134.058 0.093429H193.911C194.888 0.093429 195.825 0.472543 196.516 1.14737C197.207 1.8222 197.595 2.73746 197.595 3.69181V7.44612H130.356V3.70981C130.353 3.23423 130.447 2.7629 130.632 2.32306C130.818 1.88323 131.09 1.48361 131.434 1.14732C131.779 0.811037 132.188 0.544748 132.638 0.363853C133.088 0.182957 133.571 0.0910451 134.058 0.093429Z" fill="#263238" stroke="#263238" stroke-linecap="round" stroke-linejoin="round"/>
<path d="M134.021 38.3633H161.086" stroke="#263238" stroke-linecap="round" stroke-linejoin="round"/>
<path d="M134.021 41.7754H161.086" stroke="#263238" stroke-linecap="round" stroke-linejoin="round"/>
<path d="M134.021 45.1874H161.086" stroke="#263238" stroke-linecap="round" stroke-linejoin="round"/>
<path d="M134.021 48.5995H161.086" stroke="#263238" stroke-linecap="round" stroke-linejoin="round"/>
<path d="M134.021 52.0116H161.086" stroke="#263238" stroke-linecap="round" stroke-linejoin="round"/>
<path d="M134.021 55.4296H161.086" stroke="#263238" stroke-linecap="round" stroke-linejoin="round"/>
<path d="M134.021 58.8417H161.086" stroke="#263238" stroke-linecap="round" stroke-linejoin="round"/>
<path d="M134.021 62.2538H161.086" stroke="#263238" stroke-linecap="round" stroke-linejoin="round"/>
<path d="M134.021 65.6659H161.086" stroke="#263238" stroke-linecap="round" stroke-linejoin="round"/>
<path d="M165.845 38.3633H192.91" stroke="#263238" stroke-linecap="round" stroke-linejoin="round"/>
<path d="M165.845 41.7754H192.91" stroke="#263238" stroke-linecap="round" stroke-linejoin="round"/>
<path d="M165.845 45.1874H192.91" stroke="#263238" stroke-linecap="round" stroke-linejoin="round"/>
<path d="M165.845 48.5995H192.91" stroke="#263238" stroke-linecap="round" stroke-linejoin="round"/>
<path d="M165.845 52.0116H192.91" stroke="#263238" stroke-linecap="round" stroke-linejoin="round"/>
<path d="M165.845 55.4296H192.91" stroke="#263238" stroke-linecap="round" stroke-linejoin="round"/>
<path d="M165.845 58.8417H192.91" stroke="#263238" stroke-linecap="round" stroke-linejoin="round"/>
<path d="M165.845 62.2538H192.91" stroke="#263238" stroke-linecap="round" stroke-linejoin="round"/>
<path d="M165.845 65.6659H192.91" stroke="#263238" stroke-linecap="round" stroke-linejoin="round"/>
<path d="M152.122 16.7575C152.255 16.3523 152.326 15.9298 152.331 15.5042C152.331 13.9511 150.716 13.8612 149.132 13.8612H148.733V13.4954H155.646V13.8612C153.847 13.8612 153.19 14.9825 152.632 16.6436L148.947 27.3835C148.671 28.1811 148.438 28.7747 147.572 28.7747H147.498L144.257 18.5145L141.242 27.4075C140.959 28.205 140.726 28.7987 139.86 28.7987H139.793L135.077 13.8612H133.419V13.4954H139.486V13.8612H137.76L141.26 25.6265H141.401L144.042 17.8129L142.814 13.8911H141.156V13.4954H147.228V13.8612H145.503L149.003 25.6265H149.138L152.122 16.7575Z" fill="#C1D8ED"/>
<path d="M193.1 10.0953H165.249V34.6814H193.1V10.0953Z" fill="#C1D8ED" stroke="#263238" stroke-width="2" stroke-linecap="round" stroke-linejoin="round"/>
<path d="M193.1 20.3735C192.166 20.4254 191.238 20.5518 190.325 20.7513C186.094 21.6508 184.989 27.5814 180.206 27.5814C175.97 27.5814 175.607 22.0106 169.535 21.291C168.057 21.0637 166.544 21.3254 165.237 22.0345V34.6814H193.1V20.3735Z" fill="#263238" stroke="#263238" stroke-linecap="round" stroke-linejoin="round"/>
<path d="M174.502 15.7204C174.503 16.3259 174.32 16.918 173.977 17.422C173.633 17.9259 173.144 18.3188 172.572 18.5511C171.999 18.7833 171.369 18.8444 170.761 18.7266C170.153 18.6087 169.595 18.3173 169.156 17.8892C168.718 17.4611 168.42 16.9155 168.299 16.3217C168.178 15.7278 168.241 15.1123 168.479 14.5532C168.717 13.994 169.119 13.5164 169.635 13.1808C170.151 12.8451 170.757 12.6666 171.377 12.6678C172.206 12.6678 173.001 12.9894 173.587 13.5619C174.173 14.1344 174.502 14.9108 174.502 15.7204Z" fill="white" stroke="#263238" stroke-linecap="round" stroke-linejoin="round"/>
<path d="M194.371 2.24573H132.375V4.57868H194.371V2.24573Z" fill="white" stroke="#263238" stroke-linecap="round" stroke-linejoin="round"/>
<path d="M190.503 86.0723H163.665C162.61 86.0723 161.598 86.4817 160.851 87.2105C160.105 87.9392 159.686 88.9275 159.686 89.9581V103.978C159.686 105.009 160.105 105.997 160.851 106.726C161.598 107.455 162.61 107.864 163.665 107.864H164.488C163.653 109.663 162.032 112.421 159.471 114.059C159.471 114.059 164.917 113.687 170.591 107.864H190.49C191.546 107.864 192.558 107.455 193.304 106.726C194.05 105.997 194.469 105.009 194.469 103.978V89.9581C194.469 88.9296 194.052 87.9431 193.308 87.2147C192.565 86.4863 191.556 86.0755 190.503 86.0723Z" fill="#263238" stroke="#263238" stroke-linecap="round" stroke-linejoin="round"/>
<path d="M172.47 96.4707C172.471 96.074 172.352 95.6859 172.127 95.3556C171.902 95.0253 171.582 94.7676 171.207 94.6152C170.832 94.4629 170.419 94.4227 170.02 94.4998C169.622 94.5769 169.256 94.7678 168.969 95.0483C168.682 95.3288 168.486 95.6863 168.407 96.0754C168.328 96.4645 168.369 96.8678 168.525 97.234C168.681 97.6003 168.945 97.9131 169.283 98.1327C169.622 98.3524 170.019 98.469 170.425 98.4678C170.967 98.4662 171.486 98.2553 171.869 97.8811C172.252 97.5069 172.468 96.9999 172.47 96.4707Z" fill="#C1D8ED" stroke="#263238" stroke-linecap="round" stroke-linejoin="round"/>
<path d="M179.426 96.4707C179.426 96.0757 179.306 95.6896 179.082 95.3611C178.857 95.0327 178.538 94.7767 178.164 94.6256C177.79 94.4744 177.379 94.4349 176.983 94.5119C176.586 94.589 176.222 94.7792 175.936 95.0585C175.65 95.3378 175.455 95.6937 175.376 96.0811C175.297 96.4685 175.338 96.87 175.493 97.2349C175.647 97.5999 175.909 97.9118 176.246 98.1312C176.582 98.3506 176.977 98.4678 177.382 98.4678C177.923 98.4662 178.442 98.2553 178.826 97.8811C179.209 97.5069 179.425 96.9998 179.426 96.4707Z" fill="#C1D8ED" stroke="#263238" stroke-linecap="round" stroke-linejoin="round"/>
<path d="M186.389 96.4706C186.39 96.0742 186.271 95.6863 186.046 95.3562C185.822 95.026 185.502 94.7683 185.127 94.6157C184.753 94.4632 184.34 94.4227 183.942 94.4993C183.544 94.5759 183.178 94.7662 182.89 95.0461C182.603 95.326 182.407 95.6829 182.327 96.0717C182.248 96.4604 182.288 96.8634 182.443 97.2298C182.598 97.5962 182.861 97.9094 183.198 98.1297C183.536 98.3501 183.932 98.4677 184.338 98.4677C184.881 98.4662 185.4 98.2555 185.785 97.8814C186.169 97.5074 186.386 97.0004 186.389 96.4706Z" fill="#C1D8ED" stroke="#263238" stroke-linecap="round" stroke-linejoin="round"/>
<path d="M42.9158 8.59613H87.1238C88.1758 8.59613 89.1846 9.00426 89.9285 9.73074C90.6723 10.4572 91.0902 11.4425 91.0902 12.4699V42.399H38.9678V12.4699C38.9678 11.4457 39.3831 10.463 40.123 9.73708C40.8629 9.01112 41.867 8.60089 42.9158 8.59613Z" fill="#C1D8ED" stroke="#263238" stroke-linecap="round" stroke-linejoin="round"/>
<path d="M91.0657 37.5718H38.9678V42.3816H91.0657V37.5718Z" fill="#263238" stroke="#263238" stroke-linecap="round" stroke-linejoin="round"/>
<path d="M88.6836 39.2148H41.3564V40.739H88.6836V39.2148Z" fill="white" stroke="#263238" stroke-linecap="round" stroke-linejoin="round"/>
<path d="M65.0198 30.9635C68.9941 30.9635 72.2159 27.8169 72.2159 23.9354C72.2159 20.054 68.9941 16.9074 65.0198 16.9074C61.0455 16.9074 57.8237 20.054 57.8237 23.9354C57.8237 27.8169 61.0455 30.9635 65.0198 30.9635Z" fill="#263238" stroke="#263238" stroke-linecap="round" stroke-linejoin="round"/>
<path d="M61.772 19.5639L69.5391 23.9414L61.772 28.319V19.5639Z" fill="white" stroke="#263238" stroke-linecap="round" stroke-linejoin="round"/>
<path d="M68.5319 54.6921H19.0865C18.1302 54.6921 17.355 55.4492 17.355 56.3831V74.7867C17.355 75.7207 18.1302 76.4778 19.0865 76.4778H68.5319C69.4882 76.4778 70.2634 75.7207 70.2634 74.7867V56.3831C70.2634 55.4492 69.4882 54.6921 68.5319 54.6921Z" fill="#263238" stroke="#263238" stroke-linecap="round" stroke-linejoin="round"/>
<path d="M23.6545 57.6604L23.9124 58.0802C22.7458 58.7159 21.659 59.8314 21.659 61.1388C21.6441 61.3634 21.6752 61.5887 21.7505 61.8014C21.8258 62.0141 21.9439 62.2099 22.0977 62.3775C22.2515 62.545 22.438 62.6809 22.6463 62.7772C22.8546 62.8735 23.0805 62.9281 23.3107 62.938C23.4826 62.938 23.5992 62.8541 23.5992 62.6861C23.5992 62.5182 23.5133 62.4642 23.3414 62.4343C23.1095 62.3729 22.9075 62.2331 22.7715 62.0397C22.6354 61.8464 22.5741 61.6121 22.5984 61.3787C22.6029 61.1925 22.6461 61.0091 22.7254 60.8397C22.8047 60.6703 22.9185 60.5185 23.0598 60.3934C23.201 60.2683 23.3669 60.1725 23.5473 60.112C23.7276 60.0515 23.9187 60.0275 24.1089 60.0413C24.3157 60.042 24.5204 60.0832 24.7106 60.1625C24.9009 60.2418 25.073 60.3576 25.2167 60.503C25.3604 60.6483 25.4728 60.8204 25.5472 61.0089C25.6216 61.1975 25.6566 61.3987 25.65 61.6006C25.647 61.8545 25.5917 62.1051 25.4873 62.3375C25.3829 62.57 25.2316 62.7795 25.0425 62.9536C24.8534 63.1277 24.6303 63.2628 24.3865 63.3508C24.1428 63.4388 23.8834 63.4779 23.6238 63.4658C23.3011 63.4862 22.9776 63.4402 22.6743 63.3306C22.3709 63.2211 22.0945 63.0506 21.863 62.8301C21.6314 62.6096 21.4499 62.344 21.3302 62.0506C21.2104 61.7572 21.1551 61.4425 21.1678 61.1268C21.1494 59.6095 22.3467 58.3861 23.6545 57.6604ZM28.9288 57.6604L29.1866 58.0802C28.0139 58.7159 26.9333 59.8314 26.9333 61.1388C26.9175 61.3636 26.948 61.5892 27.023 61.8022C27.098 62.0153 27.216 62.2115 27.37 62.3792C27.524 62.547 27.7108 62.6828 27.9195 62.7788C28.1282 62.8748 28.3545 62.9289 28.5849 62.938C28.7568 62.938 28.8735 62.8541 28.8735 62.6861C28.8735 62.5182 28.7875 62.4642 28.6156 62.4343C28.3838 62.3729 28.1818 62.2331 28.0457 62.0397C27.9096 61.8464 27.8483 61.6121 27.8727 61.3787C27.8763 61.1922 27.9189 61.0084 27.9979 60.8386C28.0769 60.6688 28.1907 60.5166 28.3321 60.3913C28.4736 60.2661 28.6398 60.1704 28.8206 60.1102C29.0013 60.05 29.1928 60.0266 29.3831 60.0413C29.59 60.042 29.7946 60.0832 29.9849 60.1625C30.1752 60.2418 30.3473 60.3576 30.4909 60.503C30.6346 60.6483 30.747 60.8204 30.8214 61.0089C30.8959 61.1975 30.9308 61.3987 30.9243 61.6006C30.9204 61.8542 30.8645 62.1044 30.7598 62.3365C30.6552 62.5686 30.5039 62.7778 30.3149 62.9517C30.126 63.1256 29.9032 63.2607 29.6599 63.3491C29.4165 63.4374 29.1574 63.4771 28.8981 63.4658C28.5756 63.4853 28.2525 63.4386 27.9496 63.3287C27.6467 63.2189 27.3707 63.0483 27.1394 62.828C26.908 62.6077 26.7265 62.3425 26.6064 62.0495C26.4863 61.7565 26.4303 61.4422 26.4421 61.1268C26.4175 59.6095 27.6148 58.3861 28.9288 57.6604Z" fill="#C1D8ED"/>
<path d="M33.9761 62.0979H64.0866" stroke="white" stroke-linecap="round" stroke-linejoin="round"/>
<path d="M33.9761 64.6224H64.0866" stroke="white" stroke-linecap="round" stroke-linejoin="round"/>
<path d="M33.9761 67.147H64.0866" stroke="white" stroke-linecap="round" stroke-linejoin="round"/>
<path d="M33.9761 69.6776H64.0866" stroke="white" stroke-linecap="round" stroke-linejoin="round"/>
<path d="M58.759 110.256C64.9739 109.266 69.1898 103.542 68.1754 97.4723C67.161 91.4025 61.3005 87.2851 55.0856 88.2758C48.8707 89.2665 44.6548 94.9902 45.6692 101.06C46.6836 107.13 52.5441 111.247 58.759 110.256Z" fill="#263238" stroke="#263238" stroke-linecap="round" stroke-linejoin="round"/>
<path d="M64.1542 105.479C67.6605 101.58 67.2664 95.6428 63.2737 92.2183C59.2811 88.7938 53.2019 89.1788 49.6956 93.0782C46.1892 96.9776 46.5833 102.915 50.576 106.339C54.5686 109.764 60.6478 109.379 64.1542 105.479Z" fill="white" stroke="#263238" stroke-linecap="round" stroke-linejoin="round"/>
<path d="M56.9272 92.4707V99.2657H61.6305" stroke="#263238" stroke-width="2" stroke-linecap="round" stroke-linejoin="round"/>
<path d="M128.262 99.2888C128.262 99.2888 134.801 112.919 134.801 113.639C134.801 114.358 128.999 117.441 127.893 118.088C127.036 118.565 126.153 118.996 125.247 119.377L125.91 125.692C125.91 125.692 135.9 123.467 140.087 121.242C144.275 119.018 144.128 116.505 143.157 112.775C142.187 109.045 135.734 94.6295 135.734 94.6295L128.262 99.2888Z" fill="white"/>
<mask id="mask0_119_443" style="mask-type:alpha" maskUnits="userSpaceOnUse" x="125" y="94" width="19" height="32">
<path d="M128.262 99.2888C128.262 99.2888 134.801 112.919 134.801 113.639C134.801 114.358 128.999 117.441 127.893 118.088C127.036 118.565 126.153 118.996 125.247 119.377L125.91 125.692C125.91 125.692 135.9 123.467 140.087 121.242C144.275 119.018 144.128 116.505 143.157 112.775C142.187 109.045 135.734 94.6295 135.734 94.6295L128.262 99.2888Z" fill="black"/>
</mask>
<g mask="url(#mask0_119_443)">
<g style="mix-blend-mode:multiply" opacity="0.5">
<path d="M140.069 121.242C144.256 119.018 144.109 116.505 143.139 112.775C142.169 109.045 135.716 94.6295 135.716 94.6295L134.672 95.2771L134.34 95.8767C134.34 95.8767 140.364 110.317 140.726 115.126C140.972 118.358 134.31 122.388 129.907 124.69C133.174 123.845 137.619 122.544 140.069 121.242Z" fill="#C1D8ED"/>
</g>
</g>
<path d="M128.262 99.2888C128.262 99.2888 134.801 112.919 134.801 113.639C134.801 114.358 128.999 117.441 127.893 118.088C127.036 118.565 126.153 118.996 125.247 119.377L125.91 125.692C125.91 125.692 135.9 123.467 140.087 121.242C144.275 119.018 144.128 116.505 143.157 112.775C142.187 109.045 135.734 94.6295 135.734 94.6295L128.262 99.2888Z" stroke="#263238" stroke-linecap="round" stroke-linejoin="round"/>
<path d="M81.082 96.2786C81.082 96.2786 76.3112 113.351 76.17 116.367C76.0288 119.384 85.644 125.332 85.994 125.692C86.344 126.052 85.4475 115.318 85.4475 115.318L88.7079 99.7266L81.082 96.2786Z" fill="white"/>
<mask id="mask1_119_443" style="mask-type:alpha" maskUnits="userSpaceOnUse" x="76" y="96" width="13" height="30">
<path d="M81.082 96.2786C81.082 96.2786 76.3112 113.351 76.17 116.367C76.0288 119.384 85.644 125.332 85.994 125.692C86.344 126.052 85.4475 115.318 85.4475 115.318L88.7079 99.7266L81.082 96.2786Z" fill="black"/>
</mask>
<g mask="url(#mask1_119_443)">
<g style="mix-blend-mode:multiply" opacity="0.5">
<path d="M83.2678 97.6758L83.1635 97.214L81.082 96.2786C81.082 96.2786 76.3112 113.351 76.17 116.367C76.0288 119.384 85.644 125.332 85.994 125.692C86.1352 125.836 86.08 124.229 85.9633 122.244C83.1021 119.875 78.9944 116.541 78.5155 115.138" fill="#C1D8ED"/>
</g>
</g>
<path d="M81.082 96.2786C81.082 96.2786 76.3112 113.351 76.17 116.367C76.0288 119.384 85.644 125.332 85.994 125.692C86.344 126.052 85.4475 115.318 85.4475 115.318L88.7079 99.7266L81.082 96.2786Z" stroke="#263238" stroke-linecap="round" stroke-linejoin="round"/>
<path d="M103.487 79.1282C103.487 79.1282 101.645 80.4235 98.053 80.5674C94.4611 80.7113 94.2892 78.1688 89.8254 78.1688C84.416 78.1688 77.6313 94.8813 77.6313 94.8813C77.6313 94.8813 81.0083 98.1135 84.3178 99.4747C86.1486 100.258 88.0734 100.812 90.0464 101.124L90.5622 112.104H126.997L127.433 101.124L138.823 93.9099C138.823 93.9099 133.235 84.1534 130.521 80.4955C127.807 76.8375 123.245 78.1988 121.852 79.1282C120.458 80.0577 116.326 80.2796 114.803 80.0637C112.816 79.6343 110.853 79.108 108.921 78.4866C108.921 78.4866 106.575 76.5797 103.487 79.1282Z" fill="#C1D8ED" stroke="#263238" stroke-linecap="round" stroke-linejoin="round"/>
<path d="M90.4149 83.0021L90.2676 101.226" stroke="#263238" stroke-width="0.5" stroke-linecap="round" stroke-linejoin="round"/>
<path d="M91.7349 84.6571C91.7349 84.6571 92.2506 93.5501 94.1909 98.5033" stroke="#263238" stroke-width="0.5" stroke-linecap="round" stroke-linejoin="round"/>
<path d="M94.5288 99.2169C94.9479 100.426 95.4632 101.601 96.07 102.731" stroke="#263238" stroke-width="0.5" stroke-linecap="round" stroke-linejoin="round"/>
<path d="M92.9077 83.6497C93.6048 86.8833 94.5888 90.0515 95.8488 93.1183" stroke="#263238" stroke-width="0.5" stroke-linecap="round" stroke-linejoin="round"/>
<path d="M124.578 85.2268C124.578 85.2268 122.816 92.2608 121.269 95.421" stroke="#263238" stroke-width="0.5" stroke-linecap="round" stroke-linejoin="round"/>
<path d="M127.433 101.154L127.359 86.9478" stroke="#263238" stroke-width="0.5" stroke-linecap="round" stroke-linejoin="round"/>
<path d="M126.629 87.2357C126.629 87.2357 125.302 96.2306 122.073 100.938" stroke="#263238" stroke-width="0.5" stroke-linecap="round" stroke-linejoin="round"/>
<path d="M125.014 99.1449C125.014 99.1449 123.54 101.874 122.515 103.307" stroke="#263238" stroke-width="0.5" stroke-linecap="round" stroke-linejoin="round"/>
<path d="M101.43 80.2076C101.43 80.2076 102.462 86.3782 103.929 89.5324C105.397 92.6866 107.969 93.3342 110.174 92.4047C112.378 91.4753 113.993 86.8759 113.858 81.0112" stroke="#263238" stroke-width="0.5" stroke-linecap="round" stroke-linejoin="round"/>
<path d="M96.2174 67.2911C96.2174 67.2911 94.8175 64.9281 93.7185 66.1456C92.6194 67.363 94.6026 70.1638 95.7017 71.0934C96.8007 72.023 97.6112 71.4532 97.5437 70.4517C97.4761 69.4501 96.2174 67.2911 96.2174 67.2911Z" fill="#C1D8ED" stroke="#263238" stroke-linecap="round" stroke-linejoin="round"/>
<path opacity="0.5" d="M96.2174 67.2911C96.2174 67.2911 94.8175 64.9281 93.7185 66.1456C92.6194 67.363 94.6026 70.1638 95.7017 71.0934C96.8007 72.023 97.6112 71.4532 97.5437 70.4517C97.4761 69.4501 96.2174 67.2911 96.2174 67.2911Z" fill="white"/>
<path d="M96.2174 67.2911C96.2174 67.2911 94.8175 64.9281 93.7185 66.1456C92.6194 67.363 94.6026 70.1638 95.7017 71.0934C96.8007 72.023 97.6112 71.4532 97.5437 70.4517C97.4761 69.4501 96.2174 67.2911 96.2174 67.2911Z" stroke="#263238" stroke-linecap="round" stroke-linejoin="round"/>
<path d="M118.438 67.2911C118.438 67.2911 119.832 64.9281 120.937 66.1456C122.042 67.363 120.053 70.1638 118.954 71.0934C117.854 72.023 117.038 71.4532 117.112 70.4517C117.185 69.4501 118.438 67.2911 118.438 67.2911Z" fill="#C1D8ED" stroke="#263238" stroke-linecap="round" stroke-linejoin="round"/>
<path opacity="0.5" d="M118.438 67.2911C118.438 67.2911 119.832 64.9281 120.937 66.1456C122.042 67.363 120.053 70.1638 118.954 71.0934C117.854 72.023 117.038 71.4532 117.112 70.4517C117.185 69.4501 118.438 67.2911 118.438 67.2911Z" fill="white"/>
<path d="M118.438 67.2911C118.438 67.2911 119.832 64.9281 120.937 66.1456C122.042 67.363 120.053 70.1638 118.954 71.0934C117.854 72.023 117.038 71.4532 117.112 70.4517C117.185 69.4501 118.438 67.2911 118.438 67.2911Z" stroke="#263238" stroke-linecap="round" stroke-linejoin="round"/>
<path d="M102.824 78.6305C103.517 81.6924 104.401 84.7103 105.47 87.6674C106.796 90.8936 109.289 90.8936 110.321 88.8127C111.352 86.7319 112.009 78.9783 112.009 78.9783C112.009 78.9783 105.102 79.9198 102.824 78.6305Z" fill="white" stroke="#263238" stroke-linecap="round" stroke-linejoin="round"/>
<path d="M96.3644 68.0825C96.3644 68.0825 98.274 74.6787 101.89 78.5585C105.507 82.4383 106.802 83.3558 108.724 83.074C110.646 82.7921 112.691 80.3515 115.552 75.2784C118.413 70.2053 118.622 66.3135 118.861 65.9537C119.101 65.5939 118.247 58.4219 114.158 55.3337C110.069 52.2454 105.488 50.8902 101.522 54.2603C97.5556 57.6304 95.0382 63.1293 96.3644 68.0825Z" fill="white"/>
<mask id="mask2_119_443" style="mask-type:alpha" maskUnits="userSpaceOnUse" x="96" y="52" width="23" height="32">
<path d="M96.3644 68.0825C96.3644 68.0825 98.274 74.6787 101.89 78.5585C105.507 82.4383 106.802 83.3558 108.724 83.074C110.646 82.7921 112.691 80.3515 115.552 75.2784C118.413 70.2053 118.622 66.3135 118.861 65.9537C119.101 65.5939 118.247 58.4219 114.158 55.3337C110.069 52.2454 105.488 50.8902 101.522 54.2603C97.5556 57.6304 95.0382 63.1293 96.3644 68.0825Z" fill="black"/>
</mask>
<g mask="url(#mask2_119_443)">
<g style="mix-blend-mode:multiply" opacity="0.5">
<path d="M114.14 55.3095C110.026 52.2272 105.47 50.866 101.504 54.2361C97.5373 57.6062 95.0384 63.1291 96.3646 68.0823C96.3646 68.0823 96.7269 69.3535 97.4452 71.0806C97.4431 70.8595 97.4742 70.6393 97.5373 70.4269C98.4154 67.7105 101.006 62.4515 109.725 64.8621C116.651 66.769 115.804 72.7176 115.159 75.8899L115.534 75.2302C118.401 70.1391 118.604 66.2653 118.843 65.9055C119.083 65.5457 118.254 58.3977 114.14 55.3095Z" fill="#C1D8ED"/>
</g>
</g>
<path d="M96.3644 68.0825C96.3644 68.0825 98.274 74.6787 101.89 78.5585C105.507 82.4383 106.802 83.3558 108.724 83.074C110.646 82.7921 112.691 80.3515 115.552 75.2784C118.413 70.2053 118.622 66.3135 118.861 65.9537C119.101 65.5939 118.247 58.4219 114.158 55.3337C110.069 52.2454 105.488 50.8902 101.522 54.2603C97.5556 57.6304 95.0382 63.1293 96.3644 68.0825Z" stroke="#263238" stroke-linecap="round" stroke-linejoin="round"/>
<path d="M108.706 71.5245C108.478 72.9253 108.355 74.3404 108.338 75.7586C108.411 77.192 108.853 77.6238 108.19 77.7677C107.527 77.9117 106.796 76.9041 106.796 76.9041" stroke="#263238" stroke-linecap="round" stroke-linejoin="round"/>
<path d="M101.356 72.6759C101.782 72.9778 102.291 73.1462 102.816 73.1591C103.34 73.172 103.857 73.0288 104.298 72.7483" stroke="#263238" stroke-linecap="round" stroke-linejoin="round"/>
<path d="M110.689 72.6759C111.114 72.9773 111.622 73.1454 112.145 73.1583C112.669 73.1713 113.185 73.0283 113.624 72.7483" stroke="#263238" stroke-linecap="round" stroke-linejoin="round"/>
<path d="M106.047 70.2595C106.047 70.2595 104.647 66.8831 100.024 68.4604" stroke="#263238" stroke-linecap="round" stroke-linejoin="round"/>
<path d="M109.897 69.8457C109.897 69.8457 111.07 66.5412 115.257 68.4783" stroke="#263238" stroke-linecap="round" stroke-linejoin="round"/>
<path d="M106.938 72.9221C106.938 74.7692 104.77 76.2626 102.093 76.2626C99.4162 76.2626 97.2427 74.7692 97.2427 72.9221C97.2427 71.0749 99.2689 70.3073 101.946 70.3073C104.623 70.3073 106.938 71.0809 106.938 72.9221Z" stroke="#263238" stroke-linecap="round" stroke-linejoin="round"/>
<path d="M118.106 72.9221C118.106 74.7692 115.933 76.2626 113.256 76.2626C110.579 76.2626 108.411 74.7692 108.411 72.9221C108.411 71.0749 110.431 70.3073 113.108 70.3073C115.785 70.3073 118.106 71.0809 118.106 72.9221Z" stroke="#263238" stroke-linecap="round" stroke-linejoin="round"/>
<path d="M56.1969 130.447L55.896 203.144C55.896 203.373 55.9891 203.593 56.155 203.755C56.3208 203.917 56.5457 204.008 56.7802 204.008C57.0088 204.008 57.2285 203.921 57.3925 203.765C57.5565 203.609 57.6518 203.397 57.6582 203.174L59.7826 130.549L56.1969 130.447Z" fill="white" stroke="#263238" stroke-linecap="round" stroke-linejoin="round"/>
<path d="M51.1866 147.442L50.898 222.597C50.8972 222.711 50.9195 222.823 50.9636 222.929C51.0078 223.034 51.0729 223.129 51.1551 223.21C51.2374 223.29 51.3352 223.353 51.4428 223.397C51.5504 223.44 51.6658 223.461 51.7821 223.461C52.0104 223.461 52.2299 223.375 52.3947 223.221C52.5594 223.066 52.6568 222.856 52.6663 222.633L54.7846 147.538L51.1866 147.442Z" fill="white" stroke="#263238" stroke-linecap="round" stroke-linejoin="round"/>
<path d="M159.103 130.447L159.404 203.144C159.405 203.257 159.383 203.369 159.339 203.474C159.295 203.579 159.231 203.674 159.149 203.754C159.067 203.835 158.97 203.898 158.863 203.942C158.756 203.985 158.642 204.008 158.526 204.008C158.297 204.008 158.076 203.921 157.911 203.765C157.746 203.61 157.65 203.398 157.642 203.174L155.523 130.549L159.103 130.447Z" fill="white" stroke="#263238" stroke-linecap="round" stroke-linejoin="round"/>
<path d="M164.119 147.442L164.42 222.597C164.421 222.711 164.399 222.823 164.355 222.929C164.311 223.034 164.245 223.129 164.163 223.21C164.081 223.29 163.983 223.353 163.875 223.397C163.768 223.44 163.652 223.461 163.536 223.461C163.309 223.461 163.09 223.375 162.926 223.22C162.762 223.066 162.666 222.855 162.658 222.633L160.534 147.538L164.119 147.442Z" fill="white" stroke="#263238" stroke-linecap="round" stroke-linejoin="round"/>
<path d="M86.0739 150.566L85.8959 217.272C85.8764 217.439 85.9238 217.606 86.028 217.739C86.1322 217.872 86.2851 217.96 86.4546 217.986C86.6201 217.963 86.7707 217.88 86.8756 217.753C86.9806 217.626 87.032 217.465 87.0195 217.302L88.3519 150.644L86.0739 150.566Z" fill="white" stroke="#263238" stroke-linecap="round" stroke-linejoin="round"/>
<path d="M129.306 148.419L129.471 206.634C129.486 206.775 129.444 206.916 129.355 207.027C129.265 207.139 129.136 207.213 128.992 207.234C128.85 207.213 128.72 207.139 128.632 207.027C128.544 206.915 128.504 206.774 128.52 206.634L127.384 148.467L129.306 148.419Z" fill="white" stroke="#263238" stroke-linecap="round" stroke-linejoin="round"/>
<path d="M85.4047 148.419L85.5705 206.634C85.5847 206.775 85.5429 206.916 85.4538 207.027C85.3646 207.139 85.2349 207.213 85.0916 207.234C84.9487 207.213 84.8196 207.139 84.7315 207.027C84.6433 206.915 84.6029 206.774 84.6188 206.634L83.4829 148.467L85.4047 148.419Z" fill="white" stroke="#263238" stroke-linecap="round" stroke-linejoin="round"/>
<path d="M128.071 150.566L128.262 217.272C128.281 217.439 128.234 217.606 128.13 217.739C128.025 217.872 127.872 217.96 127.703 217.986C127.538 217.962 127.388 217.878 127.284 217.752C127.179 217.625 127.127 217.465 127.138 217.302L125.806 150.644L128.071 150.566Z" fill="white" stroke="#263238" stroke-linecap="round" stroke-linejoin="round"/>
<path d="M106.772 155.237C121.862 155.237 134.095 152.507 134.095 149.139C134.095 145.771 121.862 143.04 106.772 143.04C91.6817 143.04 79.4487 145.771 79.4487 149.139C79.4487 152.507 91.6817 155.237 106.772 155.237Z" fill="white" stroke="#263238" stroke-linecap="round" stroke-linejoin="round"/>
<path d="M93.4667 200.907C93.4667 200.907 92.0361 202.91 93.0615 203.906C94.0868 204.901 95.1061 204.505 95.0017 205.507C94.8973 206.508 93.2641 209.902 91.8335 213.5C90.4028 217.098 93.3685 220.696 96.1315 219.701C98.8945 218.705 98.5875 208.703 98.9927 206.904C99.398 205.105 99.7111 204.805 99.6067 203.108C99.5023 201.411 99.4041 199.612 98.0717 199.408C96.7393 199.204 94.0807 200.212 93.4667 200.907Z" fill="white" stroke="#263238" stroke-linecap="round" stroke-linejoin="round"/>
<path d="M97.8568 216.942C96.0148 216.259 93.1904 216.397 91.6001 216.553C92.1343 218.814 94.1789 220.403 96.1314 219.701C96.948 219.407 97.4822 218.34 97.8568 216.942Z" fill="#C1D8ED" stroke="#263238" stroke-linecap="round" stroke-linejoin="round"/>
<path d="M90.2983 196.512C90.2983 196.512 93.264 201.412 94.0806 202.707C94.8972 204.003 97.6663 203.607 97.9733 201.808C98.2803 200.008 96.8436 195.013 96.8436 195.013L90.7036 196.512H90.2983Z" fill="white" stroke="#263238" stroke-linecap="round" stroke-linejoin="round"/>
<path d="M83.2375 188.716C83.2375 188.716 82.4147 190.018 82.8261 190.917C83.2375 191.817 84.3611 194.413 85.0795 195.714C85.7979 197.016 89.0705 197.813 92.8527 197.214C96.635 196.614 98.7901 194.911 98.8945 193.412C98.9989 191.912 98.2805 189.916 97.7647 187.517C97.249 185.118 95.9227 185.22 94.0807 185.22C92.2387 185.22 84.7725 187.319 83.2375 188.716Z" fill="#C1D8ED" stroke="#263238" stroke-linecap="round" stroke-linejoin="round"/>
<path d="M94.2893 159.333C94.3446 156.874 95.7998 155.663 95.9103 153.978C96.0835 151.75 95.8949 149.51 95.3515 147.34L92.5517 143.604C84.496 143.706 78.7244 143.838 78.6323 143.868C78.3253 143.964 78.1166 145.667 77.9139 147.064C77.9139 147.064 74.494 147.49 75.108 156.784C75.1939 158.08 78.6446 173.065 78.8963 174.774C80.4313 185.214 83.8513 190.443 83.8513 190.443C83.8513 190.443 84.1583 191.745 88.1493 191.445C92.1403 191.145 96.1313 188.548 96.1313 188.548C96.1313 188.548 94.0806 168.226 94.2893 159.333Z" fill="#263238" stroke="#263238" stroke-linecap="round" stroke-linejoin="round"/>
<path d="M77.3615 145.541C77.3615 145.541 73.131 146.14 70.5399 149.031C67.9488 151.922 70.147 153.829 75.1818 153.313C80.2166 152.797 86.025 147.766 86.2706 147.496C86.5162 147.226 81.0209 143.808 77.3615 145.541Z" fill="white" stroke="#263238" stroke-linecap="round" stroke-linejoin="round"/>
<path d="M84.8704 147.34C87.5657 147.476 90.24 147.877 92.8524 148.54C96.3338 149.541 102.474 151.538 103.904 151.538C105.335 151.538 104.93 146.339 104.93 145.343C104.93 144.347 86.5098 143.742 84.2564 143.742C82.003 143.742 84.8704 147.34 84.8704 147.34Z" fill="white" stroke="#263238" stroke-linecap="round" stroke-linejoin="round"/>
<path d="M104.93 145.343C104.93 145.343 103.291 146.14 102.677 149.139C102.063 152.137 101.246 153.738 102.474 154.536C103.702 155.333 109.025 155.933 109.842 155.135C110.659 154.338 112.912 150.338 113.323 147.741C113.735 145.145 104.93 145.343 104.93 145.343Z" fill="#C1D8ED" stroke="#263238" stroke-linecap="round" stroke-linejoin="round"/>
<path d="M111.886 146.338C110.935 147.405 110.175 148.622 109.639 149.936C109.205 151.312 108.863 152.715 108.614 154.134C110.573 154.658 112.488 155.328 114.342 156.137C117.621 157.534 123.147 158.535 128.464 159.735C133.782 160.934 135.218 162.133 137.06 162.133C138.902 162.133 141.156 160.73 144.023 157.336C146.891 153.942 144.428 146.74 141.567 144.539C138.706 142.339 123.35 140.546 121.305 141.145C119.261 141.745 111.886 146.338 111.886 146.338Z" fill="#263238" stroke="#263238" stroke-linecap="round" stroke-linejoin="round"/>
<path d="M73.4868 153.367C73.0824 151.573 72.2634 149.893 71.0922 148.455C70.9019 148.629 70.7177 148.809 70.5396 149.007C68.2617 151.538 69.6862 153.337 73.4868 153.367Z" fill="#C1D8ED" stroke="#263238" stroke-linecap="round" stroke-linejoin="round"/>
<path d="M93.9762 154.949C93.9762 154.949 91.864 177.023 87.5537 180.459" stroke="white" stroke-width="0.5" stroke-linecap="round" stroke-linejoin="round"/>
<path d="M92.4841 175.902C92.4841 175.902 90.8079 183.097 86.4116 185.958" stroke="white" stroke-width="0.5" stroke-linecap="round" stroke-linejoin="round"/>
<path d="M119.666 150.938C119.666 150.938 113.114 151.339 117.412 154.134C121.71 156.929 129.49 158.734 129.49 158.734" stroke="white" stroke-width="0.5" stroke-linecap="round" stroke-linejoin="round"/>
<path d="M167.226 143.376L165.016 141.433L159.907 130.639C159.665 130.148 159.285 129.735 158.811 129.447C158.337 129.159 157.789 129.009 157.23 129.014H58.008C57.4489 129.008 56.8995 129.157 56.4242 129.445C55.949 129.733 55.5676 130.147 55.3248 130.639L48.9576 144.084L47.9077 143.706V146.782L47.9568 146.746C48.0194 147.156 48.2327 147.531 48.5569 147.799C48.8812 148.067 49.2942 148.211 49.719 148.203H165.513C165.961 148.213 166.395 148.053 166.723 147.757C167.052 147.46 167.25 147.05 167.275 146.614L167.226 143.376Z" fill="#263238" stroke="#263238" stroke-linecap="round" stroke-linejoin="round"/>
<path d="M165.513 145.391H49.719C49.4322 145.402 49.1473 145.342 48.8908 145.216C48.6344 145.09 48.4149 144.903 48.2529 144.671C48.0909 144.44 47.9917 144.172 47.9646 143.893C47.9375 143.614 47.9834 143.333 48.098 143.076L55.3248 127.827C55.5664 127.334 55.9475 126.919 56.423 126.631C56.8985 126.343 57.4485 126.194 58.008 126.202H157.23C157.789 126.195 158.338 126.345 158.812 126.632C159.286 126.92 159.666 127.335 159.907 127.827L167.134 143.076C167.249 143.333 167.295 143.614 167.268 143.893C167.241 144.172 167.141 144.44 166.979 144.671C166.817 144.903 166.598 145.09 166.341 145.216C166.085 145.342 165.8 145.402 165.513 145.391Z" fill="white" stroke="#263238" stroke-linecap="round" stroke-linejoin="round"/>
<g style="mix-blend-mode:multiply" opacity="0.5">
<path d="M55.5826 135.149C55.5826 135.149 52.9609 136.906 54.6002 137.547C56.2396 138.189 75.0833 137.709 77.3796 137.067C79.676 136.426 82.2916 130.507 82.2916 129.548C82.2916 128.588 78.9883 127.899 77.7726 127.845C76.5569 127.791 60.4946 128.744 60.4946 128.744L55.5826 135.149Z" fill="#C1D8ED"/>
</g>
<g style="mix-blend-mode:multiply" opacity="0.5">
<path d="M149.316 138.19C153.026 138.19 156.033 136.97 156.033 135.467C156.033 133.963 153.026 132.744 149.316 132.744C145.606 132.744 142.599 133.963 142.599 135.467C142.599 136.97 145.606 138.19 149.316 138.19Z" fill="#C1D8ED"/>
</g>
<g style="mix-blend-mode:multiply" opacity="0.5">
<path d="M106.551 141.553C119.854 141.553 130.638 139.582 130.638 137.151C130.638 134.721 119.854 132.75 106.551 132.75C93.2481 132.75 82.4639 134.721 82.4639 137.151C82.4639 139.582 93.2481 141.553 106.551 141.553Z" fill="#C1D8ED"/>
</g>
<path d="M144.404 124.757C144.404 124.757 143.962 123.035 142.494 123.611C141.027 124.187 141.174 127.989 141.463 130.142C141.752 132.295 143.741 131.288 143.741 131.288V129.998C143.741 129.998 143.01 130.568 142.642 129.782C142.273 128.997 142.347 125.044 142.715 125.116C143.084 125.188 143.815 126.406 143.815 126.406C143.815 126.406 144.036 126.268 144.404 124.757Z" fill="#C1D8ED" stroke="#263238" stroke-linecap="round" stroke-linejoin="round"/>
<path d="M143.348 125.044V134.471C143.348 135.58 145.957 136.48 149.181 136.48C152.404 136.48 155.008 135.58 155.008 134.471V125.044H143.348Z" fill="#C1D8ED" stroke="#263238" stroke-linecap="round" stroke-linejoin="round"/>
<path d="M155.008 125.045C155.008 126.004 152.398 126.778 149.181 126.778C145.963 126.778 143.348 126.004 143.348 125.045C143.348 124.085 145.957 123.311 149.181 123.311C152.404 123.311 155.008 124.091 155.008 125.045Z" fill="white" stroke="#263238" stroke-linecap="round" stroke-linejoin="round"/>
<path d="M154.247 125.044C154.247 125.878 151.975 126.55 149.181 126.55C146.387 126.55 144.109 125.878 144.109 125.044C144.109 124.211 146.381 123.539 149.181 123.539C151.981 123.539 154.247 124.211 154.247 125.044Z" fill="white" stroke="#263238" stroke-linecap="round" stroke-linejoin="round"/>
<path d="M145.27 126.004C147.822 126.732 150.534 126.732 153.086 126.004C150.534 125.276 147.822 125.276 145.27 126.004Z" fill="#263238" stroke="#263238" stroke-linecap="round" stroke-linejoin="round"/>
<path d="M54.8584 129.35L54.9321 132.576L77.1896 132.792V129.062L54.8584 129.35Z" fill="white" stroke="#263238" stroke-linecap="round" stroke-linejoin="round"/>
<path d="M77.1894 132.792L80.4251 125.98V123.971L77.042 129.71L77.1894 132.792Z" fill="white" stroke="#263238" stroke-linecap="round" stroke-linejoin="round"/>
<path d="M54.8584 132.288L54.9321 135.521L77.1896 135.737V132.006L54.8584 132.288Z" fill="white" stroke="#263238" stroke-linecap="round" stroke-linejoin="round"/>
<path d="M77.1894 135.736L80.4251 128.918V126.909L77.042 132.648L77.1894 135.736Z" fill="white" stroke="#263238" stroke-linecap="round" stroke-linejoin="round"/>
<path d="M63.4542 121.17C63.4542 121.17 63.9699 120.169 63.2331 119.737C62.4963 119.306 61.692 120.337 61.2499 120.667C60.8078 120.997 51.5548 126.981 51.2601 127.917C50.9654 128.852 51.2601 130.915 53.2433 131.143C55.2266 131.371 56.9887 130.069 57.8729 129.854C58.7571 129.638 59.1009 129.566 59.1009 129.566L65.1979 121.53L63.4542 121.17Z" fill="white" stroke="#263238" stroke-linecap="round" stroke-linejoin="round"/>
<path d="M53.2433 131.149C55.2265 131.365 56.9887 130.076 57.8728 129.86C58.757 129.644 59.1008 129.572 59.1008 129.572L59.3219 129.278L53.5933 128.139C53.2818 127.852 52.8814 127.675 52.4554 127.636C52.0295 127.597 51.6023 127.698 51.2416 127.923C50.9653 128.846 51.2601 130.927 53.2433 131.149Z" fill="white" stroke="#263238" stroke-linecap="round" stroke-linejoin="round"/>
<path d="M53.6118 128.151H70.8038C76.1702 128.151 77.785 127.863 77.785 127.863L81.0883 121.188C81.0883 121.188 70.6503 121.836 67.4268 121.62C66.0948 121.583 64.7682 121.438 63.4604 121.188L53.6118 128.151Z" fill="white" stroke="#263238" stroke-linecap="round" stroke-linejoin="round"/>
<path d="M53.6118 128.151L53.9065 129.441C53.9065 129.441 67.8628 129.513 71.5345 129.513C75.2062 129.513 77.9999 129.657 77.9999 129.657L77.7789 127.857L53.6118 128.151Z" fill="white" stroke="#263238" stroke-linecap="round" stroke-linejoin="round"/>
<path d="M77.9998 129.639L81.0821 122.748V121.17L77.7788 127.845L77.9998 129.639Z" fill="white" stroke="#263238" stroke-linecap="round" stroke-linejoin="round"/>
<path d="M127.587 137.698H85.4969C85.4037 137.699 85.3112 137.682 85.2248 137.647C85.1384 137.613 85.0599 137.562 84.9936 137.498C84.9274 137.434 84.8749 137.358 84.839 137.273C84.8031 137.189 84.7847 137.099 84.7847 137.008C84.7847 136.917 84.8031 136.827 84.839 136.743C84.8749 136.658 84.9274 136.582 84.9936 136.518C85.0599 136.454 85.1384 136.403 85.2248 136.369C85.3112 136.334 85.4037 136.317 85.4969 136.318H127.587C127.68 136.317 127.772 136.334 127.858 136.369C127.944 136.403 128.022 136.454 128.088 136.518C128.153 136.582 128.205 136.659 128.241 136.743C128.276 136.827 128.294 136.917 128.293 137.008C128.294 137.099 128.276 137.189 128.241 137.273C128.205 137.357 128.153 137.433 128.088 137.498C128.022 137.562 127.944 137.613 127.858 137.647C127.772 137.682 127.68 137.699 127.587 137.698Z" fill="white" stroke="#263238" stroke-linecap="round" stroke-linejoin="round"/>
<path d="M127.943 136.306H85.1345C84.9778 136.306 84.827 136.248 84.7128 136.143C84.5987 136.038 84.5299 135.895 84.5205 135.742L82.1934 108.428C82.1829 108.343 82.191 108.257 82.2172 108.176C82.2433 108.095 82.2869 108.02 82.345 107.956C82.4031 107.893 82.4743 107.842 82.5541 107.808C82.6338 107.773 82.7202 107.755 82.8074 107.756H130.276C130.363 107.755 130.449 107.773 130.529 107.808C130.609 107.842 130.68 107.893 130.738 107.956C130.796 108.02 130.84 108.095 130.866 108.176C130.892 108.257 130.9 108.343 130.89 108.428L128.563 135.742C128.553 135.896 128.484 136.04 128.368 136.145C128.253 136.25 128.1 136.308 127.943 136.306Z" fill="white" stroke="#263238" stroke-linecap="round" stroke-linejoin="round"/>
<path d="M110.579 122.502C110.579 124.133 108.767 125.453 106.538 125.453C104.31 125.453 102.492 124.133 102.492 122.502C102.492 120.871 104.303 119.557 106.538 119.557C108.773 119.557 110.579 120.877 110.579 122.502Z" fill="white" stroke="#263238" stroke-linecap="round" stroke-linejoin="round"/>
<path d="M152.411 101.166C153.067 100.666 153.529 99.9611 153.718 99.1691C153.856 98.5751 153.842 97.957 153.676 97.3699" stroke="#263238" stroke-linecap="round" stroke-linejoin="round"/>
<path d="M147.511 122.55C147.511 122.55 151.594 120.151 150.261 117.411C148.929 114.67 144.422 112.853 144.422 108.584C144.422 104.902 148.432 103.54 151.047 102.065" stroke="#263238" stroke-linecap="round" stroke-linejoin="round"/>
<path d="M151.281 122.472C151.281 122.472 153.558 120.991 153.558 118.64C153.558 117.063 151.833 116.031 149.555 113.495" stroke="#263238" stroke-linecap="round" stroke-linejoin="round"/>
<path d="M148.297 111.96C148.297 111.96 146.805 110.815 147.904 108.662" stroke="#263238" stroke-linecap="round" stroke-linejoin="round"/>
<path d="M113.729 49.1452C114.459 48.9953 116.025 48.4076 117.081 46.015C117.097 45.9788 117.106 45.9398 117.107 45.9002C117.108 45.8607 117.1 45.8214 117.086 45.7846C117.071 45.7479 117.049 45.7143 117.02 45.6859C116.992 45.6575 116.959 45.6348 116.921 45.6192C116.846 45.5887 116.762 45.588 116.687 45.6171C116.611 45.6462 116.55 45.7028 116.516 45.7751C115.546 47.9699 114.158 48.4556 113.581 48.5635C114.614 47.3428 115.184 45.8115 115.196 44.228C115.196 40.0663 111.248 36.6962 106.379 36.6962C101.51 36.6962 97.562 40.0663 97.562 44.228C97.5653 45.7477 98.0835 47.2236 99.0356 48.4256C98.1085 48.3776 96.5428 48.7614 94.5596 51.0221C94.5029 51.0792 94.4712 51.1555 94.4712 51.235C94.4712 51.3145 94.5029 51.3908 94.5596 51.4479C94.6165 51.4941 94.6881 51.5195 94.7622 51.5199C94.8068 51.5199 94.8509 51.5102 94.8913 51.4916C94.9316 51.4729 94.9672 51.4457 94.9955 51.4119C97.5313 48.5275 99.2075 49.0133 99.5452 49.1452C98.9719 49.4532 98.4346 49.8211 97.9427 50.2426C95.1121 52.7312 93.3868 57.4385 93.6079 61.3603C93.8563 63.9614 94.8218 66.4481 96.4016 68.5562C98.4574 67.1193 100.162 65.2557 101.393 63.0993C102.311 61.5153 103.131 59.8793 103.849 58.2001C103.849 59.9571 104.083 62.0799 105.028 63.597C105.71 64.7954 106.71 65.7927 107.922 66.4847C109.133 67.1768 110.514 67.538 111.917 67.5308C112.402 67.5376 112.886 67.4913 113.36 67.3929C113.402 67.3827 113.441 67.3641 113.475 67.3383C113.509 67.3125 113.537 67.28 113.557 67.243C115.927 67.7347 118.285 67.6927 118.647 67.201C119.23 66.4154 120.059 63.9628 120.335 60.9645C120.839 55.8794 117.56 51.4659 113.729 49.1452ZM105.599 63.2312C104.408 61.3303 104.445 58.2301 104.586 56.4491L104.666 56.2452C104.723 58.0769 105.201 59.8727 106.065 61.4994C106.929 63.1261 108.157 64.5419 109.658 65.6419C110.487 66.2015 111.406 66.6211 112.378 66.8832C110.874 66.9851 107.779 66.7033 105.599 63.2312Z" fill="#263238"/>
<path d="M105.704 53.7925C105.704 53.7925 105.2 57.4265 109.928 60.9885C114.656 64.5505 119.138 63.1473 119.138 63.1473" stroke="white" stroke-width="0.5" stroke-linecap="round" stroke-linejoin="round"/>
<path d="M106.397 52.5933C106.397 52.5933 111.377 59.6761 118.254 57.8289" stroke="white" stroke-width="0.5" stroke-linecap="round" stroke-linejoin="round"/>
<path d="M103.935 50.2366C103.15 49.8472 102.27 49.6759 101.392 49.7414C100.514 49.807 99.671 50.1069 98.9555 50.6085C96.3092 52.3297 94.9829 56.3959 94.9829 56.3959" stroke="white" stroke-width="0.5" stroke-linecap="round" stroke-linejoin="round"/>
<path d="M104.064 52.2095C104.064 52.2095 101.921 51.6517 100.595 52.9472C99.9486 53.5193 99.3957 54.1847 98.9556 54.9203" stroke="white" stroke-width="0.5" stroke-linecap="round" stroke-linejoin="round"/>
</g>
<defs>
<clipPath id="clip0_119_443">
<rect width="219" height="232" fill="white" transform="translate(0.5)"/>
</clipPath>
</defs>
</svg>
