<svg width="48" height="48" viewBox="0 0 48 48" fill="none" xmlns="http://www.w3.org/2000/svg">
<circle cx="24" cy="24" r="24" fill="#313E8D"/>
<path d="M18.7186 9.10206C23.2829 8.39336 29.7757 11.6137 28.9334 11.5055C28.0912 11.3973 21.4216 10.7644 19.9694 13.3081C18.5172 15.8517 19.6715 18.8681 21.4287 23.3224L12.6732 21.9204C11.9648 18.4966 11.5234 16.5737 12.8816 13.3081C14.617 10.4862 15.9078 9.59946 18.7186 9.10206Z" fill="#313E8D" stroke="white" stroke-width="2"/>
<path d="M28.1761 15.3418C29.9722 16.6567 30.8393 18.888 29.6071 20.2102C28.4866 21.4125 26.3228 21.4125 24.5338 20.317C22.6066 19.1368 22.0971 16.8225 23.1029 15.4486C24.2079 14.1515 26.3509 14.1515 28.1761 15.3418Z" fill="#313E8D" stroke="white" stroke-width="2"/>
<path d="M13.7903 25.2651C13.7903 25.1127 24.8683 27.4036 28.1126 26.4554C31.357 25.5072 33.0247 22.8946 33.4881 20.9982C33.862 19.4683 33.331 17.0128 32.8685 15.8719C32.5865 15.4231 32.4496 15.1948 32.5612 15.309C32.6508 15.4006 32.7577 15.5985 32.8685 15.8719C33.7576 17.287 36.0887 20.8951 36.6166 22.8748C37.3118 25.4824 37.2496 28.2457 34.8263 30.9312C32.4029 33.6166 29.7803 34.9841 26.7677 36.1694C23.7551 37.3547 18.6568 38.5399 18.6568 38.5399C18.6568 38.5399 13.7903 25.4175 13.7903 25.2651Z" fill="#313E8D" stroke="white" stroke-width="2"/>
</svg>
