<svg width="48" height="48" viewBox="0 0 48 48" fill="none" xmlns="http://www.w3.org/2000/svg">
<circle cx="24" cy="24" r="24" fill="#313E8D"/>
<path d="M29.3333 18.6667C31.4551 18.6667 33.4899 19.5095 34.9902 21.0098C36.4905 22.5101 37.3333 24.545 37.3333 26.6667V36H32V26.6667C32 25.9594 31.7191 25.2812 31.219 24.7811C30.7189 24.281 30.0406 24 29.3333 24C28.6261 24 27.9478 24.281 27.4477 24.7811C26.9476 25.2812 26.6667 25.9594 26.6667 26.6667V36H21.3333V26.6667C21.3333 24.545 22.1762 22.5101 23.6765 21.0098C25.1768 19.5095 27.2116 18.6667 29.3333 18.6667V18.6667Z" stroke="white" stroke-width="2" stroke-linecap="round" stroke-linejoin="round"/>
<path d="M16 20H10.6667V36H16V20Z" stroke="white" stroke-width="2" stroke-linecap="round" stroke-linejoin="round"/>
<path d="M13.3333 16C14.8061 16 16 14.8061 16 13.3334C16 11.8606 14.8061 10.6667 13.3333 10.6667C11.8606 10.6667 10.6667 11.8606 10.6667 13.3334C10.6667 14.8061 11.8606 16 13.3333 16Z" stroke="white" stroke-width="2" stroke-linecap="round" stroke-linejoin="round"/>
</svg>
